<?xml version="1.0" encoding="UTF-8"?>
<svg xmlns="http://www.w3.org/2000/svg" version="1.1" viewBox="0 0 869 216">
  <defs>
    <style>
      .cls-1 {
        fill: #f29813;
      }

      .cls-2 {
        fill: #003c6c;
      }
    </style>
  </defs>
  <!-- Generator: Adobe Illustrator 28.6.0, SVG Export Plug-In . SVG Version: 1.2.0 Build 709)  -->
  <g>
    <g id="Layer_1">
      <g>
        <path class="cls-2" d="M219.9,88V0h31.5c13,.1,24.5,8,24.5,22s-7.1,17.7-16.3,19.9v.2c11.9,2,20,9.7,20,22.3s-7.1,23.5-26.2,23.5h-33.5ZM247,38.8c10.2,0,20.5-4,20.5-16s-10.5-15.3-20.8-15.5h-18.8v31.4h19.1ZM227.8,80.7h19.4c15.1.2,23.9-3.8,23.9-17.3s-12.1-17.3-28.6-17.3h-14.6v34.6ZM326,44.9c-.7-10-5.8-13.2-14.5-13.2s-14,2.3-15,10.6h-7.8c1.8-12.5,11.2-17.3,22.9-17.3s21.9,6.2,21.7,20.2v29c-.1,4.7.4,9.6.6,13.8h-7.6l-.2-9h-.2l-.4.9c-2.7,5.1-10.8,10-19.1,10s-20.3-6.9-20.3-18.9,5-14.6,12.3-17.7c8.2-3.5,18.8-2.3,27.7-2.8v-5.6ZM307.8,83.2c16,0,19-13.2,18.3-25.9-10.4.4-32-1.6-32,13.8s6.3,12.2,13.8,12.2ZM367.8,25c11.6,0,21.3,4,22.3,16.9h-7.9c-.7-7.7-7.6-10.2-15.1-10.2s-13.8,2.7-13.8,9.9,11.8,8.2,28.4,14c6.3,2.2,10.4,7.7,10.4,14.3,0,13.8-12.8,20-25.7,20s-22.8-5-23-18.5h7.9c.6,9.1,8.6,11.8,16.9,11.8s16-3.7,16-12.2-9.6-10.2-19.4-12.4c-9.6-2.3-19.4-5.1-19.4-16.4s11.7-17.1,22.4-17.1ZM411.5,51.8l29.6-25h9.4l-30.9,26.4,33.4,34.7h-9.3l-32.2-33.1v33.1h-7.3V0h7.3v51.8ZM467.6,9.2h-8.5V0h8.5v9.1ZM467,26.9v61.1h-7.3V26.9h7.3ZM485.4,88h-7.3v-47.4c0-4.7-.4-9.6-.6-13.8h7.6l.4,9,.2.2c4.3-7.6,11.2-11.1,19.1-11.1,20,0,21.6,17.7,21.6,24.7v38.2h-7.3v-39.5c0-10.6-6.1-16.8-16.1-16.8s-17.5,10.1-17.5,21.1v35.2ZM219.3,103.9h59v14.6h-40.1v20.6h37.5v14.6h-37.5v23.5h41.4v14.6h-60.3v-87.9ZM308,137.8l.2.4c3.8-5.6,9.5-9.3,18.8-9.3s17.9,4.5,20.1,13.4c1,3.8,1.2,7.7,1.2,9.7v39.8h-18.3v-36.8c-.1-6.6-1.9-14-11-14s-10.7,5.1-11,14v36.8h-18.3v-61.1h18.1v7.1ZM418.2,186.4c0,14.3-3.2,29.8-30,29.6-13.5,0-28-3.3-28.4-19.7h17.3c.2,5.5,5.1,7.6,10.1,7.6,13.9,0,13.4-12.7,12.7-21.6h-.2c-3.8,6-10.2,8.4-17.2,8.4-16.6,0-25.1-15.6-25.1-30.5s8.9-31.3,25.9-31.3,13.4,2.7,16.3,8.9h.2v-7.1h18.3v55.7ZM388.2,178.5c10,0,11.8-10.2,11.8-18.1s-1.8-19.2-11.8-19.2-11.8,10.2-11.8,19.2,1.8,18.1,11.8,18.1ZM450,103.9v15.7h-19.5v-15.7h19.5ZM449.4,130.7v61.1h-18.3v-61.1h18.3ZM481,137.8l.2.4c3.8-5.6,9.5-9.3,18.8-9.3s17.9,4.5,20.1,13.4c1,3.8,1.2,7.7,1.2,9.7v39.8h-18.3v-36.8c-.1-6.6-1.9-14-11-14s-10.7,5.1-11,14v36.8h-18.3v-61.1h18.1v7.1ZM549.6,166.2c0,7.9,1.1,15.3,10.5,15.3s9.5-2.3,11.2-7.9h16.4c-1.6,15.1-13.4,20.1-27.7,20.1-20.9,0-29.4-11.8-29.4-32.3s10.7-32.5,29.4-32.5,21,3.9,26.1,14.6c1.7,3.4,2.6,7.1,3,11,.5,3.8.5,7.7.5,11.7h-40.1ZM570.8,154c0-6.7-1.8-12.9-10.7-12.9s-10.2,6.2-10.5,12.9h21.2ZM614.9,166.2c0,7.9,1.1,15.3,10.5,15.3s9.5-2.3,11.2-7.9h16.4c-1.6,15.1-13.4,20.1-27.6,20.1-21,0-29.4-11.8-29.4-32.3s10.7-32.5,29.4-32.5,21,3.9,26.1,14.6c1.7,3.4,2.6,7.1,3,11,.5,3.8.5,7.7.5,11.7h-40.1ZM636.1,154c0-6.7-1.8-12.9-10.7-12.9s-10.2,6.2-10.5,12.9h21.2ZM679.3,130.7l.4,11.1h.2c3.9-9.6,11.7-12.1,20.8-11.8v16.2h-7.9c-3,.2-7.1,1.9-8.9,4.5-1.9,3.4-2.3,6.8-2.4,10.8v30.3h-18.1v-49c-.1-2.6-.5-7.7-.7-12.2h16.7ZM727.8,103.9v15.7h-19.5v-15.7h19.5ZM727.2,130.7v61.1h-18.3v-61.1h18.3ZM758.8,137.8l.2.4c3.8-5.6,9.5-9.3,18.8-9.3s17.9,4.5,20.1,13.4c1,3.8,1.2,7.7,1.2,9.7v39.8h-18.3v-36.8c-.1-6.6-1.9-14-11-14s-10.7,5.1-11,14v36.8h-18.3v-61.1h18.1v7.1ZM869,186.4c0,14.3-3.2,29.8-30,29.6-13.5,0-28-3.3-28.4-19.7h17.3c.2,5.5,5.1,7.6,10.1,7.6,13.9,0,13.4-12.7,12.7-21.6h-.2c-3.8,6-10.2,8.4-17.2,8.4-16.6,0-25.1-15.6-25.1-30.5s8.9-31.3,25.9-31.3,13.4,2.7,16.3,8.9h.2v-7.1h18.3v55.7ZM838.9,178.5c10,0,11.8-10.2,11.8-18.1s-1.8-19.2-11.8-19.2-11.8,10.2-11.8,19.2,1.8,18.1,11.8,18.1Z"/>
        <path class="cls-1" d="M39.3,85.2H15.9v-38.5h23.2c8.2,0,14.2,1.5,18,4.5,3.9,3,5.8,7.9,5.8,14.7s-2.1,10.9-6.3,14.3c-4.2,3.4-10,5-17.4,5ZM59.9,140c4.2-3.7,6.3-8.9,6.3-15.4,0-14.2-7.3-21.5-21.8-21.8H15.9v42.8h26.5c7.5,0,13.3-1.9,17.5-5.6ZM191.9,0v191.9H0v-27.3h42.1c15.4,0,27.2-3.5,35.5-10.4,8.3-6.9,12.4-16.8,12.4-29.7s-2-14.5-6.1-20c-4-5.6-9.8-9.3-17.2-11.3,6.5-2.8,11.5-6.7,14.9-11.7,3.4-5,5.1-10.7,5.1-16.9,0-12.3-4-21.6-12.1-27.8-8.1-6.2-19.9-9.3-35.4-9.3H0V0h191.9ZM164.5,145.7h-65.1c-2.3,6.3-5.9,11.6-11,15.9-1.3,1.1-2.6,2-4,2.9h80.2v-18.8ZM137.1,102.7v-17.5h-39.1v17.5h39.1ZM164.5,27.4h-82.5c1,.6,2,1.3,2.9,2,5.7,4.3,9.6,10,11.7,17h67.9v-19Z"/>
      </g>
    </g>
  </g>
</svg>